<?xml version="1.0" encoding="utf-8"?>
<!-- Generator: Adobe Illustrator 27.2.0, SVG Export Plug-In . SVG Version: 6.00 Build 0)  -->
<svg version="1.1" id="Layer_1" xmlns="http://www.w3.org/2000/svg" xmlns:xlink="http://www.w3.org/1999/xlink" x="0px" y="0px"
	 viewBox="0 0 52 93.4" style="enable-background:new 0 0 52 93.4;" xml:space="preserve">
<style type="text/css">
	.st0{fill:none;stroke:#FFFFFF;stroke-width:2;stroke-linecap:round;stroke-linejoin:round;stroke-miterlimit:10;}
	.st1{fill:#FFFFFF;}
</style>
<g>
	<path class="st0" d="M41.4,51.5c0,8.5-6.9,15.4-15.4,15.4c-8.5,0-15.4-6.9-15.4-15.4"/>
	<path class="st1" d="M26,60.7L26,60.7c-5.1,0-9.3-4.1-9.3-9.3v-25c0-5.1,4.1-9.3,9.3-9.3l0,0c5.1,0,9.3,4.1,9.3,9.3v25
		C35.3,56.6,31.1,60.7,26,60.7z"/>
	<rect x="24.4" y="56.1" class="st1" width="3.3" height="18.8"/>
	<path class="st1" d="M18.1,74.6L18.1,74.6c0-0.9,0.7-1.6,1.6-1.6h12.5c0.9,0,1.6,0.7,1.6,1.6l0,0c0,0.9-0.7,1.6-1.6,1.6H19.7
		C18.8,76.2,18.1,75.5,18.1,74.6z"/>
</g>
</svg>
