<?xml version="1.0" encoding="utf-8"?>
<!-- Generator: Adobe Illustrator 27.2.0, SVG Export Plug-In . SVG Version: 6.00 Build 0)  -->
<svg version="1.1" id="Layer_1" xmlns="http://www.w3.org/2000/svg" xmlns:xlink="http://www.w3.org/1999/xlink" x="0px" y="0px"
	 viewBox="0 0 37.3 36.7" style="enable-background:new 0 0 37.3 36.7;" xml:space="preserve">
<style type="text/css">
	.st0{fill:#907BA8;}
</style>
<g>
	<path class="st0" d="M29.2,9.1c-0.5-0.4-1.2-0.4-1.7,0.1c-0.4,0.5-0.4,1.1,0,1.6c4.1,4.2,4.1,10.9,0,15c-0.5,0.4-0.5,1.2-0.1,1.7
		c0.4,0.5,1.2,0.5,1.7,0.1c0,0,0.1-0.1,0.1-0.1C34.2,22.5,34.2,14.2,29.2,9.1"/>
	<path class="st0" d="M25.3,12.1c-0.3-0.3-0.8-0.3-1.1,0.1c-0.3,0.3-0.3,0.8,0,1.1c2.8,2.8,2.8,7.3,0,10.2c-0.3,0.3-0.4,0.8-0.1,1.1
		c0.3,0.3,0.8,0.4,1.1,0.1c0,0,0,0,0.1-0.1C28.7,21.1,28.7,15.6,25.3,12.1"/>
	<path class="st0" d="M20.8,4.3C17.2,4.9,14,7,11.8,10h-1.5c-3.3,0-6,2.7-6,6v4.8c0,3.3,2.7,6,6,6h1.5c2.2,3,5.4,5,9,5.7
		c0.6,0.1,1.3-0.3,1.4-1c0-0.1,0-0.1,0-0.2V5.4c0-0.7-0.5-1.2-1.2-1.2C21,4.2,20.9,4.3,20.8,4.3"/>
</g>
</svg>
